<?xml version="1.0" encoding="utf-8"?>
<!-- Generator: Adobe Illustrator 22.0.1, SVG Export Plug-In . SVG Version: 6.00 Build 0)  -->
<svg version="1.1" xmlns="http://www.w3.org/2000/svg" xmlns:xlink="http://www.w3.org/1999/xlink" x="0px" y="0px"
	 viewBox="0 0 176.9 177.5" style="enable-background:new 0 0 176.9 177.5;" xml:space="preserve">
<style type="text/css">
	.st0{fill:#FFFFFF;stroke:#000000;stroke-miterlimit:10;}
	.st1{fill:url(#SVGID_1_);}
	.st2{fill:url(#SVGID_2_);}
</style>
<g id="图层_2">
	<rect x="33.2" y="19.1" class="st0" width="116.8" height="139"/>
</g>
<g id="onface">
	
		<linearGradient id="SVGID_1_" gradientUnits="userSpaceOnUse" x1="87.75" y1="682.6654" x2="87.75" y2="720.6654" gradientTransform="matrix(1 0 0 1 0 -611.3309)">
		<stop  offset="0" style="stop-color:#2A91F1"/>
		<stop  offset="1" style="stop-color:#2C8AEE"/>
	</linearGradient>
	<path class="st1" d="M79.2,86.7c0,11.5,5.3,19.9,8.6,19.9c3.3,0,8.5-8.4,8.5-19.9c0-11-4.4-18.2-8.5-18.2
		C83.6,68.6,79.2,75.7,79.2,86.7z"/>
	
		<linearGradient id="SVGID_2_" gradientUnits="userSpaceOnUse" x1="88.95" y1="-412.3346" x2="88.95" y2="-584.9874" gradientTransform="matrix(1 0 0 -1 0 -410)">
		<stop  offset="0" style="stop-color:#249DF5"/>
		<stop  offset="1" style="stop-color:#317CE9"/>
	</linearGradient>
	<path class="st2" d="M141.1,0.2H36.8c-20,0-36.3,16.2-36.3,36.3v104.3c0,20,16.2,36.3,36.3,36.3h104.3c20,0,36.3-16.3,36.3-36.3
		V36.5C177.4,16.4,161.1,0.2,141.1,0.2L141.1,0.2z M38.3,90.9c-2.5,0.2-4.7-1.6-4.9-4.1v-0.1c-0.1-1.5-0.2-2.9-0.2-4.4
		c-0.1-13.2,3.3-57,46.5-62.7c3-0.4,5.8-0.5,8.6-0.5C132.2,19.4,142,62.7,142,63l0,0c0.6,2.5-1,4.9-3.5,5.5s-4.9-1-5.5-3.4l0,0l0,0
		c-0.1,0-8.5-37.1-44.8-36.8c-2.4,0-4.8,0.1-7.5,0.5c-35.3,4-38.3,40.8-38.4,53.6c0,2.4,0.1,3.7,0.1,3.7
		C42.7,88.5,40.9,90.7,38.3,90.9L38.3,90.9z M71.9,157.8c-2.4,0.9-5-0.3-5.9-2.6l0,0C65.9,155,52.4,119.8,52.4,88
		C52,65.5,60.3,42.1,87.3,39.5c2.5-0.1,4.7,1.9,4.8,4.4c0.1,2.3-1.6,4.3-3.8,4.7C67.6,50.8,62.1,66.5,61.7,88
		c-0.1,29.2,13,63.9,13.1,63.9C75.5,154.2,74.3,156.9,71.9,157.8L71.9,157.8L71.9,157.8z M105.4,86.7c-0.3,12.7-4,28-17.7,29.1
		C73.9,114.7,70.3,99.4,70,86.7c0.1-12,4-26.6,17.7-27.3C101.5,60.2,105.4,74.7,105.4,86.7z M79.9,133.2L79.9,133.2
		c-2.5-0.2-4.4-2.4-4.2-4.9l0,0c0.2-2.5,2.4-4.4,4.9-4.2l0,0l0,0c0,0,0.6,0.1,1.8,0.1c6.2,0,23.9-1.6,31-17.3c2.6-5.6,4-11.8,4-18
		c0.3-20.7-15.3-36.6-15.4-36.6c-1.8-1.8-1.8-4.7,0-6.5s4.7-1.8,6.5,0c0.3,0.4,18.1,17.8,18.3,43c0,7.5-1.7,15-4.9,21.8
		c-10,21.1-32.2,22.7-39.4,22.7C81,133.3,80,133.2,79.9,133.2L79.9,133.2z M136.6,128.3c-13.5,24.1-44.6,24.6-48.4,24.8h-0.4h-0.1
		c-2.5,0.1-4.6-1.9-4.8-4.4c-0.1-2.5,1.9-4.6,4.4-4.8l0,0h0.4c0.4,0.2,31-0.7,40.8-20c6-11,7.1-28.2,7.1-36.8c0-3.5-0.1-5.5-0.1-5.5
		c-0.2-2.5,1.7-4.7,4.2-4.9l0,0c2.5-0.2,4.7,1.7,4.9,4.3c0,0.1,0.1,2.4,0.1,6.1C144.7,96.5,143.9,114.5,136.6,128.3L136.6,128.3z"/>
</g>
</svg>
